# xmcd
#
# Track frame offsets:
#	150
#	19171
#	41280
#	60347
#	75515
#	91619
#	113640
#	136930
#	158996
#	181729
#	200257
#	214956
#
# Disc length: 3077 seconds
#
# Revision: 1
# Processed by: cddbd v1.5.2PL0 Copyright (c) Steve Scherf et al.
# Submitted via: audiograbber 1.83.01
#
DISCID=8a0c030c
DTITLE=Oscar Toney Jr. - Loving you too Long The Contempo Sessios
DYEAR=2007
DGENRE=Soul
TTITLE0=Message to Martha (Kentucky Bluebird)
TTITLE1=Everybody's Needed 
TTITLE2=The Thrill Is Gone 
TTITLE3=Everything I Own 
TTITLE4=My Girl 
TTITLE5=I've Been Loving You Too Long 
TTITLE6=Make It Easy on Yourself 
TTITLE7=Is It Because I'm Black 
TTITLE8=For Your Precious Love 
TTITLE9=Kentucky Blackbird [45 Version] 
TTITLE10=Everything I Own [45 Version] 
TTITLE11=Chicken Heads 
EXTD=
EXTT0=
EXTT1=
EXTT2=
EXTT3=
EXTT4=
EXTT5=
EXTT6=
EXTT7=
EXTT8=
EXTT9=
EXTT10=
EXTT11=
PLAYORDER=
